PathFileType  4	(X/Y/Z) C:\Users\wagnerel85475\Documents\Thesis\opencap-core\Data\3375ffbc-daeb-4a43-b4f7-ac9899cd4c71\MarkerData\PreAugmentation
DataRate	CameraRate	NumFrames	NumMarkers	Units	OrigDataRate	OrigDataStartFrame	OrigNumFrames
60.0	60.0	11	20	m	60.0	293	585
Frame#	Time	Neck			RShoulder			RElbow			RWrist			LShoulder			LElbow			LWrist			midHip			RHip			RKnee			RAnkle			LHip			LKnee			LAnkle			LBigToe			LSmallToe			LHeel			RBigToe			RSmallToe			RHeel			
		X1	Y1	Z1	X2	Y2	Z2	X3	Y3	Z3	X4	Y4	Z4	X5	Y5	Z5	X6	Y6	Z6	X7	Y7	Z7	X8	Y8	Z8	X9	Y9	Z9	X10	Y10	Z10	X11	Y11	Z11	X12	Y12	Z12	X13	Y13	Z13	X14	Y14	Z14	X15	Y15	Z15	X16	Y16	Z16	X17	Y17	Z17	X18	Y18	Z18	X19	Y19	Z19	X20	Y20	Z20	

293	4.8666667	0.2814000	1.8069600	-0.1777000	0.2932900	1.8235700	0.0099800	0.1885200	1.5223100	0.1035200	0.3065100	1.2285800	0.1552400	0.2530200	1.7999100	-0.3620800	0.1696100	1.4946400	-0.4062800	0.2391700	1.1868600	-0.4239400	0.2706600	1.2612800	-0.1465400	0.3045500	1.2690700	-0.0327000	0.2648900	0.7739100	-0.0542700	0.1745000	0.2684100	-0.0253700	0.2881600	1.2575600	-0.2615400	0.2306100	0.7877700	-0.2128400	0.1889900	0.2777300	-0.1865100	0.3525900	0.1969900	-0.2401400	0.2838400	0.2032200	-0.2763200	0.1541000	0.2265700	-0.1726000	0.3700100	0.1944300	-0.0298700	0.3545100	0.2035300	0.0312700	0.1637500	0.2229800	-0.0303800
294	4.8833333	0.2902600	1.8020900	-0.1822900	0.2932700	1.8160800	0.0096500	0.1987100	1.5223000	0.0982800	0.3148900	1.2286600	0.1505400	0.2535400	1.8002500	-0.3627100	0.1830400	1.4938000	-0.4108800	0.2279100	1.1917000	-0.4306100	0.2688000	1.2654900	-0.1547700	0.3146400	1.2692300	-0.0377500	0.2740900	0.7746600	-0.0586700	0.1741500	0.2683300	-0.0257400	0.2979600	1.2575500	-0.2652300	0.2307300	0.7917600	-0.2129200	0.1884300	0.2777000	-0.1865100	0.3526100	0.1968700	-0.2407600	0.2835200	0.2032400	-0.2765700	0.1538200	0.2265600	-0.1723300	0.3693700	0.1938600	-0.0305400	0.3646300	0.2088300	0.0269800	0.1502900	0.2164200	-0.0338400
295	4.9000000	0.2910700	1.7969800	-0.1823500	0.2695900	1.8184100	0.0023900	0.1984600	1.5220300	0.0985400	0.3036000	1.2326800	0.1469600	0.2537300	1.7962700	-0.3704500	0.1925800	1.4941500	-0.4149000	0.2400900	1.1950400	-0.4325400	0.2701500	1.2613300	-0.1550500	0.3145400	1.2690600	-0.0374100	0.2749800	0.7749800	-0.0589300	0.1743900	0.2684200	-0.0253600	0.2870000	1.2574900	-0.2701700	0.2307600	0.7891900	-0.2126100	0.1889800	0.2778400	-0.1865400	0.3524900	0.1972200	-0.2401800	0.2838400	0.2032500	-0.2763300	0.1540200	0.2266100	-0.1726200	0.3696400	0.1982300	-0.0294800	0.3645900	0.2101400	0.0271400	0.1520200	0.2204700	-0.0339000
296	4.9166667	0.2904600	1.7967700	-0.1824400	0.2698500	1.8185700	0.0018500	0.1988900	1.5224600	0.0980600	0.2911300	1.2327600	0.1436200	0.2544400	1.7962900	-0.3709000	0.2063100	1.4963400	-0.4192600	0.2381600	1.1963300	-0.4348300	0.2685600	1.2656700	-0.1548900	0.3142700	1.2737300	-0.0378300	0.2634800	0.7694300	-0.0623900	0.1739400	0.2683200	-0.0257200	0.2755400	1.2613400	-0.2739800	0.2331300	0.8007200	-0.2125100	0.1884200	0.2779300	-0.1865500	0.3627000	0.1992200	-0.2368000	0.2834900	0.2032000	-0.2765900	0.1538600	0.2265900	-0.1723000	0.3692400	0.1938400	-0.0305800	0.3645900	0.2087600	0.0269500	0.1500700	0.2163000	-0.0337600
297	4.9333333	0.2905700	1.7963800	-0.1907400	0.2797100	1.8207800	-0.0022200	0.1985500	1.5220800	0.0983300	0.2916200	1.2329200	0.1434300	0.2647900	1.7950400	-0.3747500	0.2054600	1.4966800	-0.4274400	0.2400100	1.1993500	-0.4330100	0.2697700	1.2657900	-0.1553200	0.3245400	1.2692200	-0.0421500	0.2753900	0.7710500	-0.0587000	0.1742800	0.2683200	-0.0253400	0.2757200	1.2653900	-0.2746400	0.2313100	0.8080000	-0.2125500	0.1890200	0.2779400	-0.1866200	0.3627400	0.1993600	-0.2361800	0.2839300	0.2032000	-0.2763400	0.1540600	0.2266300	-0.1726800	0.3701000	0.1944600	-0.0299000	0.3641100	0.2058300	0.0267700	0.1520100	0.2200900	-0.0339000
298	4.9500000	0.2900800	1.7917700	-0.1906300	0.2687600	1.8227900	-0.0065000	0.1981300	1.5192100	0.0979000	0.2906600	1.2329800	0.1434200	0.2662000	1.7867100	-0.3747100	0.2071500	1.4956000	-0.4281200	0.2391400	1.1963700	-0.4351200	0.2901300	1.2659500	-0.1642900	0.3248900	1.2693100	-0.0427600	0.2746100	0.7788800	-0.0585500	0.1739900	0.2683600	-0.0257200	0.2647800	1.2654800	-0.2786200	0.2324000	0.8047100	-0.2128400	0.1884400	0.2779800	-0.1866200	0.3613700	0.2021800	-0.2370900	0.2835300	0.2032100	-0.2766000	0.1536200	0.2307500	-0.1727700	0.3692300	0.1938700	-0.0304600	0.3542800	0.2057400	0.0307300	0.1512100	0.2196600	-0.0343800
299	4.9666667	0.2798000	1.7925500	-0.1948900	0.2684600	1.8226900	-0.0063200	0.2087700	1.5216700	0.0932600	0.2912500	1.2330800	0.1432400	0.2767900	1.7854000	-0.3784800	0.2163000	1.4957300	-0.4318200	0.2516100	1.1996400	-0.4372000	0.2803100	1.2658400	-0.1600400	0.3245400	1.2690800	-0.0424000	0.2755200	0.7832000	-0.0589700	0.1744400	0.2721800	-0.0256900	0.2645600	1.2653300	-0.2791900	0.2321200	0.8127100	-0.2127000	0.1891300	0.2781200	-0.1866900	0.3626800	0.1994000	-0.2362100	0.2944500	0.2057800	-0.2804400	0.1538700	0.2308400	-0.1730900	0.3706500	0.1983000	-0.0302900	0.3542800	0.2070900	0.0309600	0.1539700	0.2241100	-0.0346000
300	4.9833333	0.2788200	1.7924900	-0.1950500	0.2674000	1.8232100	-0.0148700	0.2193300	1.5215600	0.0878300	0.2794800	1.2286000	0.1400300	0.2778900	1.7853700	-0.3872600	0.2078000	1.4954500	-0.4367000	0.2609900	1.2052900	-0.4432500	0.2900200	1.2658300	-0.1643200	0.3248500	1.2692300	-0.0427500	0.2865300	0.7837600	-0.0549400	0.1740800	0.2721300	-0.0260600	0.2537200	1.2613400	-0.2829400	0.2320000	0.8116500	-0.2128900	0.1885100	0.2779800	-0.1866800	0.3529500	0.1966800	-0.2408300	0.2941100	0.2057200	-0.2807300	0.1536900	0.2308300	-0.1727400	0.3710400	0.1979500	-0.0229700	0.3545900	0.2093000	0.0303800	0.1646100	0.2259000	-0.0314500
301	5.0000000	0.2683000	1.7935500	-0.1994500	0.2675200	1.8231400	-0.0147200	0.2077400	1.5218500	0.0847100	0.2801300	1.2364200	0.1397700	0.2773000	1.7852800	-0.3871400	0.2061000	1.4958300	-0.4366100	0.2736900	1.2044400	-0.4454000	0.2911000	1.2659100	-0.1646600	0.3246100	1.2690500	-0.0424600	0.2875100	0.7802800	-0.0550000	0.1744500	0.2683400	-0.0252500	0.2538800	1.2614700	-0.2836400	0.2320900	0.8118200	-0.2128300	0.1892800	0.2777200	-0.1866800	0.3629800	0.1994000	-0.2444000	0.2842800	0.2034400	-0.2846500	0.1543600	0.2265200	-0.1726100	0.3610300	0.1960900	-0.0257500	0.3546600	0.2106100	0.0306100	0.1638700	0.2229100	-0.0303400
302	5.0166667	0.2558700	1.7987300	-0.2037700	0.2670600	1.8205400	-0.0153600	0.2185400	1.5216400	0.0792400	0.2795000	1.2363900	0.1397200	0.2777600	1.7853200	-0.3874400	0.2076700	1.4952300	-0.4371300	0.2627500	1.2049700	-0.4517000	0.3014300	1.2652200	-0.1688600	0.3253200	1.2652500	-0.0428300	0.2981800	0.7890100	-0.0513700	0.1741100	0.2684000	-0.0255900	0.2547100	1.2615800	-0.2830700	0.2313400	0.8064300	-0.2130100	0.1886700	0.2777800	-0.1866600	0.3631400	0.1993500	-0.2451600	0.2839200	0.2034700	-0.2849900	0.1542400	0.2265700	-0.1722200	0.3708900	0.1980900	-0.0228600	0.3544900	0.2093000	0.0305000	0.1627400	0.2223100	-0.0307100
303	5.0333333	0.2563800	1.7986100	-0.2041300	0.2773100	1.8192900	-0.0197100	0.2287100	1.5208600	0.0746300	0.2802200	1.2365300	0.1395700	0.2773200	1.7852600	-0.3873300	0.2062700	1.4957100	-0.4369100	0.2653700	1.2041500	-0.4587300	0.3023900	1.2652100	-0.1690700	0.3255900	1.2687400	-0.0425300	0.3104700	0.7870800	-0.0474800	0.1859900	0.2707400	-0.0215400	0.2546100	1.2614600	-0.2835900	0.2308800	0.8101300	-0.2130500	0.1905200	0.2826800	-0.1865600	0.3613200	0.2026700	-0.2447900	0.2842400	0.2035000	-0.2847000	0.1544600	0.2266900	-0.1726000	0.3713300	0.1950400	-0.0215100	0.3543700	0.2070600	0.0312400	0.1639300	0.2227700	-0.0302000
